<svg xmlns="http://www.w3.org/2000/svg" xmlns:xlink="http://www.w3.org/1999/xlink" width="56px" height="94px" viewBox="0 0 56 94" version="1.1">
  <!-- Generator: Sketch 54.1 (76490) - https://sketchapp.com -->
  <title>Group 4</title>
  <desc>Created with Sketch.</desc>
  <g id="设计稿" stroke="none" stroke-width="1" fill="none" fill-rule="evenodd">
    <g id="Group-4">
      <rect id="Rectangle" stroke="#DCDEE3" fill="#FFFFFF" x="0.5" y="0.5" width="55" height="93" rx="4"/>
      <rect id="Rectangle" fill="#2e71ea" opacity="0.800000012" x="4" y="41" width="15" height="12"/>
      <rect id="Rectangle" fill="#2e71ea" opacity="0.800000012" x="20" y="41" width="15" height="12"/>
      <rect id="Rectangle" fill="#2e71ea" opacity="0.800000012" x="36" y="41" width="16" height="12"/>
      <rect id="矩形" fill="#3B4457" opacity="0.0436895461" x="4" y="35" width="48" height="4"/>
      <rect id="矩形" fill="#3B4457" opacity="0.0436895461" x="4" y="29" width="48" height="1"/>
      <rect id="矩形" fill="#3B4457" opacity="0.0436895461" x="4" y="64" width="48" height="1"/>
      <rect id="矩形" fill="#3B4457" opacity="0.0436895461" x="4" y="55" width="24" height="4"/>
      <rect id="Rectangle" fill="#3B4457" opacity="0.0436895461" x="4" y="76" width="15" height="11.25"/>
      <rect id="Rectangle" fill="#3B4457" opacity="0.0436895461" x="20" y="76" width="15" height="11.25"/>
      <rect id="Rectangle" fill="#3B4457" opacity="0.0436895461" x="36" y="76" width="16" height="11"/>
      <rect id="矩形" fill="#3B4457" opacity="0.0436895461" x="4" y="70" width="48" height="4"/>
      <rect id="Rectangle" fill="#3B4457" opacity="0.0436895461" x="4" y="6" width="15" height="11.25"/>
      <rect id="Rectangle" fill="#3B4457" opacity="0.0436895461" x="20" y="6" width="15" height="11.25"/>
      <rect id="Rectangle" fill="#3B4457" opacity="0.0436895461" x="36" y="6" width="16" height="11"/>
      <rect id="矩形" fill="#3B4457" opacity="0.0436895461" x="4" y="20" width="24" height="4"/>
    </g>
  </g>
</svg>