<svg xmlns="http://www.w3.org/2000/svg" width="56" height="94">
    <title>725</title>
    <g fill="none" fill-rule="evenodd">
        <rect stroke="#DCDEE3" fill="#FFF" x=".5" y=".5" width="55" height="93" rx="4"/>
        <path d="M53 21h2.901v32H33c1-7.667 3.333-14.167 7-19.5S48 24 53 21z" fill="#2e71ea" opacity=".6"/>
        <path d="M0 21h53.27c-5.31 3.227-9.79 7.496-13.442 12.807-3.65 5.31-6.093 11.708-7.328 19.193H0V21z"
              fill="#2e71ea" opacity=".8"/>
        <path d="M54 20c-5.333 3.667-10 8.333-14 14s-6.833 12.5-8.5 20.5" stroke="#FFF" stroke-width="2"
              stroke-linecap="round"/>
        <path fill="#3B4457" opacity=".044"
              d="M5 5.138h6v5H5zm9 0h10v5H14zm-9 8h47v5H5zM5 70h9v9H5zM1 83h54v7a3 3 0 0 1-3 3H4a3 3 0 0 1-3-3v-7zm16-13h10v4H17zm0 6h32v4H17zM5 56.138h24v5H5zm-4 8h54v1H1zm42-8h9v5h-9z"/>
    </g>
</svg>