<svg xmlns="http://www.w3.org/2000/svg" width="56" height="94">
    <title>727</title>
    <g transform="translate(0 -1)" fill="none" fill-rule="evenodd">
        <rect stroke="#DCDEE3" fill="#FFF" x=".5" y="1.5" width="55" height="93" rx="4"/>
        <path d="M4 .738h48a4 4 0 0 1 4 4v84.074a6 6 0 0 1-6 6H6a6 6 0 0 1-6-6V4.738a4 4 0 0 1 4-4z" opacity=".044"/>
        <path d="M5 2h46a4 4 0 0 1 4 4v39H1V6a4 4 0 0 1 4-4z" fill="#3B4457" opacity=".044"/>
        <path fill="#2e71ea" opacity=".8" d="M7 21h42v54H7z"/>
    </g>
</svg>