<?xml version="1.0" encoding="UTF-8"?>
<svg width="38px" height="37px" viewBox="0 0 38 37" version="1.1" xmlns="http://www.w3.org/2000/svg" xmlns:xlink="http://www.w3.org/1999/xlink">
    <!-- Generator: Sketch 53.2 (72643) - https://sketchapp.com -->
    <title>合并形状</title>
    <desc>Created with Sketch.</desc>
    <g id="门店管理" stroke="none" stroke-width="1" fill="none" fill-rule="evenodd">
        <g id="选择门店" transform="translate(-1447.000000, -471.000000)" fill="#D6D6D6">
            <g id="Group" transform="translate(1403.000000, 471.000000)">
                <path d="M55.491964,6.30275862 C55.0464248,6.30275862 54.685575,5.94178079 54.685575,5.50447906 C54.685575,5.06339532 55.0464248,4.70615394 55.491964,4.70615394 L70.2830808,4.70615394 C70.7286199,4.70615394 71.0894698,5.06339532 71.0894698,5.50447906 C71.0894698,5.94551724 70.7286199,6.30275862 70.2830808,6.30275862 L55.491964,6.30275862 Z M54.3064064,10.4146342 C53.8606832,10.4146342 53.4962432,10.0573929 53.4998333,9.61630911 C53.4998333,9.17522537 53.8606832,8.81802956 54.3064064,8.81802956 L71.1115627,8.81802956 C71.5571018,8.81802956 71.9179517,9.17522537 71.9179517,9.61630911 C71.9179517,10.0573929 71.5571018,10.4146342 71.1115627,10.4146342 L54.3064064,10.4146342 Z M53.1168906,14.5302007 C52.6713514,14.5302007 52.3105476,14.1694052 52.3105476,13.7318756 C52.3105476,13.2908374 52.6713514,12.9335961 53.1168906,12.9335961 L72.4003122,12.9335961 C72.8458514,12.9335961 73.2067012,13.2908374 73.2067012,13.7318756 C73.2067012,14.1729594 72.8458514,14.5302007 72.4003122,14.5302007 L53.1168906,14.5302007 Z M68.622527,27.0300037 C69.2153058,27.0300037 69.6976663,27.5075862 69.7012564,28.0981736 C69.7012564,28.6887611 69.21908,29.1661158 68.622527,29.1661158 L56.950046,29.1661158 C56.3534931,29.1661158 55.8713166,28.6887611 55.8713166,28.0981736 C55.8713166,27.5075862 56.3534931,27.0300037 56.950046,27.0300037 L68.622527,27.0300037 Z M78.6416343,33.4858658 L78.6378601,33.4858658 L78.6378601,20.2753165 C78.6378601,19.8377869 78.2770103,19.4769914 77.8314711,19.4769914 L68.5673409,19.4769914 C67.4367853,21.6458658 65.1759044,23.0493596 62.66855,23.0493596 C60.1609656,23.0493596 57.8964945,21.6496022 56.7659389,19.4769914 L47.5016246,19.4769914 C47.0560855,19.4769914 46.6952816,19.8342328 46.6952816,20.2753165 L46.6952816,33.4858658 C46.6952816,33.9233498 47.0560855,34.2841453 47.5016246,34.2841453 L77.8352453,34.2841453 C78.2770103,34.2841453 78.6416343,33.9269495 78.6416343,33.4858658 Z M51.9755648,3.57232266 L47.7925138,16.8122623 L57.6534271,16.8122623 C58.2278412,16.8122623 58.7395208,17.1730579 58.9274021,17.7125653 C59.4797233,19.3093522 60.9820831,20.384585 62.66855,20.384585 C64.3547868,20.384585 65.8571466,19.3093522 66.4094678,17.7125653 C66.5935749,17.1730579 67.1090287,16.8085259 67.6834888,16.8085259 L77.5443561,16.8085259 L73.3614893,3.57605911 C73.225204,3.14586576 72.6029221,2.66832882 71.9659576,2.66832882 L53.3673683,2.66832882 C52.8002724,2.66832882 52.1228044,3.10581281 51.9755648,3.57232266 Z M80.9945688,18.8098978 C81.2079489,19.2545357 81.3368699,19.7503904 81.3368699,20.2753165 L81.3368699,33.4858658 C81.3368699,35.3961047 79.7645955,36.9526564 77.8352453,36.9526564 L47.5016246,36.9526564 C45.5722745,36.9526564 44,35.3961047 44,33.4858658 L44,20.2753165 C44,19.7503904 44.128921,19.2582722 44.338711,18.8098978 L49.4054299,2.77777956 C49.902381,1.19557389 51.6073506,-3.55271368e-14 53.3711425,-3.55271368e-14 L71.9659576,-3.55271368e-14 C73.7297034,-3.55271368e-14 75.434489,1.19557389 75.9316241,2.78133374 L80.9945688,18.8098978 Z" id="合并形状"></path>
            </g>
        </g>
    </g>
</svg>