<?xml version="1.0" encoding="UTF-8"?>
<svg width="16px" height="16px" viewBox="0 0 16 16" version="1.1" xmlns="http://www.w3.org/2000/svg" xmlns:xlink="http://www.w3.org/1999/xlink">
    <!-- Generator: Sketch 53.2 (72643) - https://sketchapp.com -->
    <title>诊断ICON</title>
    <desc>Created with Sketch.</desc>
    <defs>
        <rect id="path-1" x="0" y="0" width="16" height="16"></rect>
    </defs>
    <g id="计划诊断" stroke="none" stroke-width="1" fill="none" fill-rule="evenodd">
        <g id="1" transform="translate(-231.000000, -76.000000)">
            <g id="诊断ICON" transform="translate(231.000000, 76.000000)">
                <g id="诊断">
                    <mask id="mask-2" fill="white">
                        <use xlink:href="#path-1"></use>
                    </mask>
                    <g id="Mask"></g>
                    <path d="M8.01983358,14.2620837 C5.59951234,14.2626274 3.34474314,13.0335913 2.03403103,10.9993252 C1.93720953,10.8511742 1.90634729,10.6694492 1.94883182,10.4976499 C1.99131634,10.3258505 2.10332351,10.179441 2.25804208,10.0934674 C2.53990052,9.93996815 2.90149095,10.0163047 3.07431001,10.2863742 C4.14982326,11.977854 6.0150788,13.0028151 8.01983358,13.0039478 C9.78393144,13.0015279 11.4538216,12.207706 12.5692337,10.8412825 C13.6846457,9.47485896 14.1278211,7.68009265 13.7766077,5.95167357 C13.3135187,3.59309103 11.365508,1.72266965 8.99298306,1.34020519 C6.56062,0.934233824 4.1336761,2.09082376 2.91741374,4.23559239 C2.74556414,4.52470775 2.37466514,4.62438704 2.08098776,4.4603823 C1.78066833,4.29682094 1.65313846,3.91518268 1.82176654,3.61911684 C3.30614321,0.993498702 6.28333244,-0.413159372 9.25474248,0.107195094 C12.3177026,0.621367322 14.731311,3.17452386 15.0987599,6.25781628 C15.3441957,8.23628331 14.7486545,10.2269948 13.4569714,11.7458119 C13.6188554,11.9041377 13.651376,11.9295861 13.8123927,12.0910997 L15.5248273,13.8979285 C15.7761312,14.1524012 15.9254109,14.3604184 15.871121,14.5889381 C15.816831,14.8174578 15.6540617,14.9929928 15.3915624,15.0627736 C15.1290631,15.1325545 14.8713045,14.94607 14.6606637,14.7280551 L13.0582719,13.0039478 C12.8967225,12.8429712 12.8153833,12.7516857 12.6339743,12.568635 C11.3466207,13.6635712 9.71054644,14.2643296 8.01983358,14.2620837 Z M0.888888889,7.55202542 C0.888888889,7.20227028 1.17077683,6.92296483 1.51809727,6.92296483 L3.85536779,6.92296483 L5.36040331,3.91600889 C5.46413535,3.70848794 5.67368806,3.57489061 5.90563929,3.56840148 C6.13759052,3.56191236 6.35428775,3.68358482 6.46946461,3.88498152 L9.24215477,8.73550679 L10.3940113,6.43228076 C10.5003915,6.21925359 10.7179529,6.08453001 10.9561049,6.08420755 L11.7950396,6.08420755 C12.0205575,6.0831155 12.2294135,6.20277578 12.3424889,6.3978587 C12.4555643,6.59294163 12.4555643,6.8336094 12.3424889,7.02869232 C12.2294135,7.22377525 12.0205575,7.34343552 11.7950396,7.34234348 L11.3453647,7.34234348 L9.8411556,10.3492847 C9.73742355,10.5568056 9.52787085,10.6904029 9.29591962,10.6968921 C9.06396839,10.7033812 8.84727116,10.5817087 8.73209429,10.380312 L5.95938938,5.52978677 L4.80753281,7.8330128 C4.70102359,8.04631176 4.48306597,8.18108832 4.24461282,8.18110076 L1.51976481,8.18110076 C1.17237301,8.18018192 0.890727363,7.89934011 0.888888889,7.55202542 Z" id="Shape" fill="#666666" fill-rule="nonzero" mask="url(#mask-2)"></path>
                </g>
            </g>
        </g>
    </g>
</svg>